<svg xmlns="http://www.w3.org/2000/svg" viewBox="0 0 200 200">

  <rect x="93.0" y="14" width="14" height="26" rx="4" fill="#8a4a26"/>
  <rect x="93.0" y="160" width="14" height="26" rx="4" fill="#8a4a26"/>
  <path d="M84 8 Q100 -4 116 8 L116 34 L84 34 Z" fill="#8a4a26"/>
  <path d="M84 166 Q100 178 116 166 L116 192 L84 192 Z" fill="#8a4a26"/>
  <line x1="92" y1="12" x2="108" y2="12" stroke="rgba(0,0,0,.25)" stroke-width="1.5"/>
  <line x1="92" y1="188" x2="108" y2="188" stroke="rgba(0,0,0,.25)" stroke-width="1.5"/><circle cx="100" cy="100" r="46" fill="#d7c39c" stroke="rgba(0,0,0,.15)" stroke-width="2"/><circle cx="100" cy="100" r="38" fill="#5c4632"/>
  <circle cx="86" cy="100" r="9" fill="none" stroke="rgba(255,255,255,.35)" stroke-width="1.5"/>
  <circle cx="114" cy="100" r="9" fill="none" stroke="rgba(255,255,255,.35)" stroke-width="1.5"/>
  <circle cx="100" cy="118" r="9" fill="none" stroke="rgba(255,255,255,.35)" stroke-width="1.5"/>
  <line x1="100.0" y1="64.0" x2="100.0" y2="67.0" stroke="#e9dcc4" stroke-width="2.5"/>
  <line x1="118.0" y1="68.8" x2="116.5" y2="71.4" stroke="#e9dcc4" stroke-width="1.2"/>
  <line x1="131.2" y1="82.0" x2="128.6" y2="83.5" stroke="#e9dcc4" stroke-width="1.2"/>
  <line x1="136.0" y1="100.0" x2="133.0" y2="100.0" stroke="#e9dcc4" stroke-width="2.5"/>
  <line x1="131.2" y1="118.0" x2="128.6" y2="116.5" stroke="#e9dcc4" stroke-width="1.2"/>
  <line x1="118.0" y1="131.2" x2="116.5" y2="128.6" stroke="#e9dcc4" stroke-width="1.2"/>
  <line x1="100.0" y1="136.0" x2="100.0" y2="133.0" stroke="#e9dcc4" stroke-width="2.5"/>
  <line x1="82.0" y1="131.2" x2="83.5" y2="128.6" stroke="#e9dcc4" stroke-width="1.2"/>
  <line x1="68.8" y1="118.0" x2="71.4" y2="116.5" stroke="#e9dcc4" stroke-width="1.2"/>
  <line x1="64.0" y1="100.0" x2="67.0" y2="100.0" stroke="#e9dcc4" stroke-width="2.5"/>
  <line x1="68.8" y1="82.0" x2="71.4" y2="83.5" stroke="#e9dcc4" stroke-width="1.2"/>
  <line x1="82.0" y1="68.8" x2="83.5" y2="71.4" stroke="#e9dcc4" stroke-width="1.2"/>
  <line x1="100" y1="100" x2="97.2" y2="84.2" stroke="#f0e6d2" stroke-width="4" stroke-linecap="round"/>
  <line x1="100" y1="100" x2="123.6" y2="104.2" stroke="#f0e6d2" stroke-width="3" stroke-linecap="round"/>
  <circle cx="100" cy="100" r="3.5" fill="#f0e6d2"/>
</svg>